<?xml version="1.0" encoding="UTF-8" standalone="no"?>
<!-- Created with Inkscape (http://www.inkscape.org/) -->

<svg
   width="71.194519mm"
   height="57.314381mm"
   viewBox="0 0 71.194519 57.314381"
   version="1.1"
   id="svg5"
   xml:space="preserve"
   inkscape:version="1.2.1 (9c6d41e410, 2022-07-14)"
   sodipodi:docname="kip-duck.svg"
   xmlns:inkscape="http://www.inkscape.org/namespaces/inkscape"
   xmlns:sodipodi="http://sodipodi.sourceforge.net/DTD/sodipodi-0.dtd"
   xmlns="http://www.w3.org/2000/svg"
   xmlns:svg="http://www.w3.org/2000/svg"><sodipodi:namedview
     id="namedview7"
     pagecolor="#505050"
     bordercolor="#eeeeee"
     borderopacity="1"
     inkscape:showpageshadow="0"
     inkscape:pageopacity="0"
     inkscape:pagecheckerboard="0"
     inkscape:deskcolor="#505050"
     inkscape:document-units="mm"
     showgrid="false"
     inkscape:zoom="1.1376503"
     inkscape:cx="70.759882"
     inkscape:cy="238.21028"
     inkscape:window-width="1858"
     inkscape:window-height="1057"
     inkscape:window-x="54"
     inkscape:window-y="-8"
     inkscape:window-maximized="1"
     inkscape:current-layer="layer1" /><defs
     id="defs2" /><g
     inkscape:label="Layer 1"
     inkscape:groupmode="layer"
     id="layer1"
     transform="translate(-29.734623,-55.762191)"><g
       id="g2575"
       transform="matrix(1,0,0,0.84077883,0,18.004184)"
       style="stroke-width:1.09058"><path
         id="path336-5-4"
         style="fill:#010101;stroke-width:1.09058"
         d="m 83.333931,44.90837 -0.502811,0.02636 -0.503329,0.02584 -0.540535,0.168982 -0.540536,0.169499 -0.509529,0.434599 -0.509013,0.434598 -0.448035,0.643889 -0.447001,0.644405 -0.306958,0.81132 -0.306441,0.811837 -0.114722,0.862479 -0.114722,0.862997 0.05633,0.89917 0.05581,0.900203 0.06408,0.275952 0.06408,0.275952 -0.08888,0.0026 -0.08837,0.0031 -1.500167,0.106453 -1.500167,0.10697 -1.159619,0.253732 -1.159619,0.253731 -1.188041,0.382922 -1.188558,0.382923 -2.091346,1.198893 -2.091345,1.19941 -0.900203,0.773596 -0.900204,0.77463 -0.650606,0.30179 -0.65164,0.302307 -0.60203,0.13746 -0.602547,0.136942 -0.889352,-0.01654 -0.889351,-0.01654 -0.84646,-0.172082 -0.845943,-0.171566 -0.978752,-0.316777 -0.979268,-0.316259 -1.317233,-0.657841 -1.317749,-0.658875 -1.398364,-0.910022 -1.398364,-0.909505 -1.095541,-0.851111 -1.09554,-0.850077 -1.12758,-0.967383 -1.128613,-0.967383 -0.450618,-0.236678 -0.451136,-0.237195 -0.721403,-0.14521 -0.720886,-0.144694 -0.636654,0.107487 -0.63717,0.107487 -0.650606,0.283186 -0.65164,0.283704 -0.710551,0.633036 -0.710551,0.633553 -1.18339,1.225249 -1.183907,1.226281 -0.972034,1.172022 -0.97255,1.172021 -1.387513,2.065507 -1.387512,2.065507 -0.787549,1.599903 -0.787549,1.600419 -0.42633,1.118794 -0.425814,1.118278 -0.382922,1.308448 -0.383439,1.30793 -0.250114,1.434538 -0.250114,1.434538 -0.101286,1.577164 -0.101286,1.576132 0.077,1.509468 0.07648,1.509469 0.153479,0.980818 0.153996,0.980819 c 0,0 1.766615,6.136459 3.184302,8.977747 1.356009,2.717674 5.029667,7.597469 5.029667,7.597469 l 1.099158,1.13068 1.099674,1.130681 0.606681,0.532262 0.606682,0.53227 0.842842,0.64802 0.842843,0.64751 0.676961,0.4439 0.676961,0.44338 1.073837,0.58756 1.074869,0.58704 1.315166,0.54571 1.314648,0.54467 1.503268,0.40979 1.503784,0.4098 1.342037,0.20722 1.34152,0.20722 1.330668,0.0698 1.330151,0.0713 2.036052,-0.12454 2.035018,-0.12454 1.413867,-0.25167 1.41335,-0.25114 1.223181,-0.29818 1.223182,-0.29817 1.674833,-0.56224 1.674833,-0.56276 1.530656,-0.64078 1.531173,-0.64131 3.258199,-1.88154 3.258715,-1.881532 1.371493,-1.035595 1.370459,-1.035596 1.229899,-1.045414 1.229382,-1.045415 1.311548,-1.29036 1.311548,-1.290361 1.015959,-1.1467 1.015442,-1.146183 0.855761,-1.104842 0.855762,-1.104325 1.130164,-1.740979 1.12913,-1.740979 0.745691,-1.477946 0.746207,-1.478463 0.544153,-1.4087 0.54467,-1.409216 0.451652,-1.805574 0.452168,-1.805575 0.123507,-1.225248 0.12299,-1.225765 -0.0047,-1.167371 -0.0047,-1.16737 -0.181901,-1.168921 -0.182418,-1.168921 -0.163297,-0.711068 -0.164331,-0.711068 0.621151,-0.594279 0.620634,-0.594279 0.499711,-0.698665 0.500744,-0.698149 0.426848,-0.870231 0.427368,-0.870231 0.29455,-1.082621 0.29404,-1.082105 0.062,-0.824239 0.0615,-0.824239 -0.0775,-0.931726 -0.0765,-0.932243 -0.20722,-0.763261 -0.20619,-0.763777 -0.617534,-1.068669 -0.617533,-1.069185 -0.672827,-0.630453 -0.672311,-0.629935 -0.829406,-0.515214 -0.829924,-0.515731 -0.845426,-0.350366 -0.845943,-0.350367 -1.447457,-0.387056 -1.44694,-0.38654 -2.075843,-0.498677 -2.075842,-0.498678 -0.604614,-0.321944 -0.604615,-0.322461 -0.305407,-0.529167 -0.305925,-0.529683 -0.574125,-0.531751 -0.574642,-0.531233 -0.540535,-0.201022 z m -38.672574,8.082711 0.590144,0.166398 0.590145,0.166398 0.98857,0.854728 0.989087,0.855245 0.883151,0.712101 0.88315,0.712102 1.848983,1.240234 1.849499,1.240751 1.544092,0.769462 1.544092,0.769462 1.488281,0.434599 1.488798,0.435632 0.893485,0.108004 0.893486,0.109037 0.854211,-0.04857 0.855245,-0.04909 0.656808,-0.155029 0.656807,-0.155546 0.813904,-0.338998 0.81287,-0.339514 1.151868,-0.960148 1.151351,-0.960665 1.630391,-0.939994 1.629875,-0.939995 1.07332,-0.375687 1.072802,-0.375688 1.26969,-0.270268 1.269173,-0.270267 1.190625,-0.08578 1.190625,-0.08527 1.253671,0.08578 1.25367,0.08578 1.079521,0.223243 1.07952,0.223759 1.137915,0.373103 1.137915,0.372587 1.012342,0.502295 1.012341,0.501262 0.922424,0.606681 0.922425,0.606681 1.074353,0.956014 1.073836,0.957048 0.766878,0.91519 0.766878,0.915189 0.846977,1.479496 0.847494,1.480013 0.299723,0.913123 0.299723,0.913123 0.207739,0.966349 0.207223,0.966866 0.08733,1.064018 0.08785,1.064534 -0.09974,1.521354 -0.100253,1.520838 -0.47594,1.888773 -0.47594,1.888257 -0.434598,1.128613 -0.434599,1.128614 -0.748792,1.511019 -0.747758,1.511535 -1.123445,1.715141 -1.122929,1.715141 -1.101742,1.384411 -1.101224,1.384412 -0.839743,0.89762 -0.839742,0.898136 -1.046964,1.008207 -1.047481,1.008207 -0.720887,0.632003 -0.721919,0.632003 -1.308964,1.02526 -1.309481,1.024227 -2.041736,1.344621 -2.042769,1.343587 -2.029851,1.009752 -2.030367,1.01028 -1.440222,0.56947 -1.440739,0.56999 -1.375626,0.43202 -1.375627,0.43253 -1.999361,0.41703 -1.999361,0.41806 -2.092379,0.13849 -2.092896,0.1385 -1.412316,-0.0951 -1.412834,-0.0946 -1.040763,-0.16691 -1.040764,-0.1664 -1.509985,-0.41083 -1.510502,-0.41186 -1.220081,-0.524 -1.221114,-0.524 -0.901754,-0.49867 -0.90227,-0.4992 -0.710034,-0.46457 -0.710035,-0.46509 L 43.355493,99.438892 42.272355,98.563493 41.252779,97.523246 40.23217,96.483 39.321114,95.379191 38.411092,94.275899 37.696924,93.281645 36.984306,92.28739 35.810217,90.229635 35.810734,90.229118 34.637162,88.171879 34.149854,87.027763 33.662028,85.88313 33.333883,84.918331 33.005221,83.954049 32.668807,82.654903 32.332393,81.355758 32.15566,80.1672 l -0.176217,-1.188041 -0.07803,-0.973584 -0.077,-0.973584 0.02274,-1.30328 0.02325,-1.30328 0.161231,-1.383378 0.16123,-1.382344 0.561723,-2.093413 0.561723,-2.093412 0.579809,-1.35754 0.579293,-1.357023 0.6196,-1.152384 0.619084,-1.152385 0.82734,-1.272274 0.826306,-1.27279 1.197343,-1.501717 1.196826,-1.501717 1.340487,-1.39423 1.33997,-1.394747 0.687813,-0.474907 0.68833,-0.474906 0.421163,-0.08785 z" /><path
         style="fill:#ffffff;fill-opacity:1;stroke-width:1.09058"
         d="m 44.744782,53.023314 0.590144,0.166398 0.590145,0.166398 0.98857,0.854728 0.989087,0.855245 0.883151,0.712101 0.88315,0.712102 1.848983,1.240234 1.849499,1.240751 1.544092,0.769462 1.544092,0.769462 1.488281,0.434599 1.488798,0.435632 0.893485,0.108004 0.893486,0.109037 0.854211,-0.04857 0.855245,-0.04909 0.656808,-0.155029 0.656807,-0.155546 0.813904,-0.338998 0.81287,-0.339514 1.151868,-0.960148 1.151351,-0.960665 1.630391,-0.939994 1.629875,-0.939995 1.07332,-0.375687 1.072802,-0.375688 1.26969,-0.270268 1.269173,-0.270267 1.190625,-0.08578 1.190625,-0.08527 1.253671,0.08578 1.25367,0.08578 1.079521,0.223243 1.07952,0.223759 1.137915,0.373103 1.137915,0.372587 1.012342,0.502295 1.012341,0.501262 0.922424,0.606681 0.922425,0.606681 1.074353,0.956014 1.073836,0.957048 0.766878,0.91519 0.766878,0.915189 0.846977,1.479496 0.847494,1.480013 0.299723,0.913123 0.299723,0.913123 0.207739,0.966349 0.207223,0.966866 0.08733,1.064018 0.08785,1.064534 -0.09974,1.521354 -0.100253,1.520838 -0.47594,1.888773 -0.47594,1.888257 -0.434598,1.128613 -0.434599,1.128614 -0.748792,1.511019 -0.747758,1.511535 -1.123445,1.715141 -1.122929,1.715141 -1.101742,1.384411 -1.101224,1.384412 -0.839743,0.89762 -0.839742,0.898136 -1.046964,1.008207 -1.047481,1.008207 -0.720887,0.632003 -0.721919,0.632003 -1.308964,1.02526 -1.309481,1.024227 -2.041736,1.344621 -2.042769,1.343591 -2.029851,1.009775 -2.030367,1.01028 -1.440222,0.56947 -1.440739,0.56999 -1.375626,0.43202 -1.375627,0.43253 -1.999361,0.41703 -1.999361,0.41806 -2.092379,0.13849 -2.092896,0.1385 -1.412316,-0.0951 -1.412834,-0.0946 -1.040763,-0.16691 -1.040764,-0.1664 -1.509985,-0.41083 -1.510502,-0.41186 -1.220081,-0.524 -1.221114,-0.524 -0.901754,-0.49867 -0.90227,-0.4992 -0.710034,-0.46457 -0.710035,-0.46509 -1.082613,-0.874865 -1.083138,-0.875399 -1.019576,-1.040247 -1.020609,-1.040246 -0.911056,-1.103809 -0.910022,-1.103292 -0.714168,-0.994254 -0.712618,-0.994255 -1.174089,-2.057755 5.17e-4,-5.17e-4 -1.173572,-2.057239 -0.487308,-1.144116 -0.487826,-1.144633 -0.328145,-0.964799 -0.328662,-0.964282 -0.336414,-1.299146 -0.336414,-1.299145 -0.176733,-1.188558 -0.176217,-1.188041 -0.07803,-0.973584 -0.077,-0.973584 0.02274,-1.30328 0.02325,-1.30328 0.161231,-1.383378 0.16123,-1.382344 0.561723,-2.093413 0.561723,-2.093412 0.579809,-1.35754 0.579293,-1.357023 0.6196,-1.152384 0.619084,-1.152385 0.82734,-1.272274 0.826306,-1.27279 1.197343,-1.501717 1.196826,-1.501717 1.340487,-1.39423 1.33997,-1.394747 0.687813,-0.474907 0.68833,-0.474906 0.421163,-0.08785 z"
         id="path852" /><path
         id="path336-5-3"
         style="fill:#010101;stroke-width:1.09058"
         d="m 49.049184,104.94269 0.06511,2.50889 0.06511,2.50838 0.264583,0.67076 0.264584,0.67024 0.525549,0.58446 0.525549,0.58446 0.608232,0.30334 0.608232,0.30334 h 1.365291 1.364775 l 0.608231,-0.30334 0.608749,-0.30334 0.525549,-0.58446 0.525032,-0.58446 0.260966,-0.67024 0.26045,-0.67076 0.05323,-1.61696 0.05271,-1.61644 h 0.325044 0.324528 l 0.354501,0.0708 0.353983,0.0708 0.05323,1.54616 0.05374,1.54565 0.259933,0.67076 0.260449,0.67024 0.525033,0.58446 0.525549,0.58446 0.608748,0.30334 0.608232,0.30334 h 1.364774 1.365292 l 0.608231,-0.30334 0.608232,-0.30334 0.525549,-0.58446 0.52555,-0.58446 0.261482,-0.67024 0.261483,-0.67076 0.06821,-1.92133 0.06821,-3.02656 z"
         sodipodi:nodetypes="cccccccccccccccccccccccccccccccccccccccccc" /><path
         style="fill:#fcac0b;fill-opacity:1;stroke-width:1.09058"
         d="m 65.245744,106.56228 -1.205095,0.14056 -1.205611,0.14055 -0.02946,0.009 -0.02946,0.009 -1.468098,-0.009 c -0.117599,1.44924 -0.05658,0.16622 -0.07805,3.04842 l 0.115239,0.21446 0.115755,0.21497 0.294039,0.2744 0.293522,0.27492 0.452169,0.16485 0.452169,0.16485 0.40721,-0.0672 0.407727,-0.0677 0.313159,-0.16226 0.313676,-0.16175 0.303341,-0.3607 0.30334,-0.3607 0.12144,-0.43719 0.12144,-0.43769 0.001,-1.29605 z"
         id="path2467"
         sodipodi:nodetypes="ccccccccccccccccccccccc" /><path
         style="fill:#fcac0b;fill-opacity:1;stroke-width:1.09058"
         d="m 52.898694,106.18297 -1.16285,-0.14897 -0.363391,-0.0332 c -0.016,0.93205 -0.05308,0.29242 -0.02043,3.90029 l 0.115755,0.21446 0.115755,0.21497 0.293523,0.2744 0.293522,0.27492 0.452168,0.16485 0.452169,0.16485 0.407211,-0.0672 0.407727,-0.0677 0.313676,-0.16226 0.313159,-0.16175 0.30334,-0.3607 0.303858,-0.3607 0.121439,-0.43719 0.12144,-0.43769 5.17e-4,-1.25884 5.17e-4,-1.25884 -0.4408,-0.0791 -0.4408,-0.0791 -0.79375,-0.1478 z"
         id="path2465"
         sodipodi:nodetypes="cccccccccccccccccccccccc" /><g
         id="g2244"
         transform="rotate(60,11.106262,149.19202)"
         style="stroke-width:1.09058"><path
           id="path336-3"
           style="fill:#df0a19;fill-opacity:1;stroke-width:1.09058"
           d="m -27.800857,27.124971 -0.732255,0.188103 -0.731738,0.187585 -0.737939,0.371037 -0.73794,0.371553 -0.470772,0.360185 -0.470256,0.360185 -0.695565,0.650606 -0.695564,0.651123 -1.821078,1.920296 -1.821077,1.920297 -0.704867,0.542602 -0.704866,0.542603 -0.658875,0.270784 -0.658874,0.271302 -0.74104,0.0026 -0.740524,0.0026 -0.324528,0.167949 -0.324011,0.167431 -0.140043,0.308509 -0.14056,0.307991 v 0.259416 0.258899 l 0.336414,0.705383 0.33693,0.7059 0.750859,0.711068 0.750858,0.711067 0.438216,0.266651 0.4377,0.26665 0.620634,0.223242 0.620117,0.223243 0.179834,0.0041 0.179317,0.0041 0.945162,-1.087272 0.945162,-1.087789 0.992187,-0.839225 0.991671,-0.839226 0.999939,-0.671277 0.999422,-0.67076 1.293461,-0.622701 1.293462,-0.622701 1.117244,-0.364835 1.117244,-0.364319 1.116728,-0.24753 1.117245,-0.24753 2.146122,-0.06201 2.146122,-0.06253 v -0.213423 -0.213941 l -0.549837,-1.075386 -0.549837,-1.075904 -0.810804,-0.868164 -0.810803,-0.868164 -0.823722,-0.54777 -0.823206,-0.547253 -0.839742,-0.291972 -0.839742,-0.291972 -0.886251,-0.06046 z" /><path
           style="fill:#fd4a57;fill-opacity:1;stroke-width:1.09058"
           d="m -32.67604,34.450357 0.76435,-0.04137 0.73834,-0.298902 0.73834,-0.298903 0.6658,-0.394477 0.6658,-0.394478 1.01489,-0.999537 1.01488,-0.999537 0.32521,-0.668808 0.32521,-0.668809 0.0615,-0.458581 0.0615,-0.458582 -0.18376,-0.355352 -0.18376,-0.355352 -0.36203,-0.149959 -0.36203,-0.149958 -0.73125,0.06177 -0.73125,0.06177 -0.67113,0.254582 -0.67113,0.254583 -0.91637,0.596633 -0.91637,0.596634 -0.78793,0.811052 -0.78792,0.811052 -0.37683,0.765433 -0.37682,0.765432 -0.0112,0.512548 -0.0112,0.512547 0.23519,0.26146 0.23518,0.26146 0.23519,0.103509 0.23518,0.103509 0.76436,-0.04137 z"
           id="path2216" /><path
           style="fill:#fd4a57;fill-opacity:1;stroke-width:1.09058"
           d="m -39.50333,38.082578 0.63984,-0.05031 0.3009,-0.22359 0.3009,-0.223589 0.0358,-0.356953 0.0358,-0.356951 -0.31577,-0.248383 -0.31577,-0.248385 -0.48441,-0.130671 -0.48442,-0.130671 -0.57344,0.0677 -0.57344,0.0677 -0.27019,0.177035 -0.27019,0.177035 -0.0801,0.25233 -0.0801,0.252331 0.14356,0.268239 0.14356,0.268239 0.42738,0.180139 0.42738,0.180138 0.17639,0.06447 0.17638,0.06447 z"
           id="path2214" /></g><path
         style="fill:#fed907;stroke-width:1.09058"
         d="m 75.225403,85.601103 -0.435559,-0.69901 -0.0642,-0.302403 -0.0642,-0.302394 -0.01846,-0.532477 -0.01845,-0.532483 0.06072,-0.31857 0.06073,-0.318575 0.271191,-0.650045 0.271176,-0.650048 0.549361,-0.5925 0.549346,-0.592504 0.593513,-0.342665 0.593514,-0.342665 0.224941,-0.79739 0.224937,-0.797377 0.301801,-0.338305 0.301802,-0.338305 0.700997,-0.340058 0.700997,-0.340057 0.658757,-0.03494 0.658753,-0.03493 0.722517,0.145817 0.722514,0.145831 0.851116,0.422196 0.851112,0.422209 0.498515,0.396354 0.498507,0.396358 0.341196,0.42857 0.341191,0.42856 0.197418,0.610318 0.197418,0.610318 0.06055,0.929392 0.06055,0.929391 -0.186109,0.897889 -0.186113,0.897902 -0.366227,0.714937 -0.366232,0.714928 -0.584417,0.50242 -0.584417,0.50242 -0.677141,0.166197 -0.677159,0.166207 -0.722978,-0.159916 -0.722979,-0.159915 -0.927306,0.375478 -0.927316,0.375483 -0.811672,0.0699 -0.81166,0.06991 -0.699036,-0.187306 -0.699031,-0.187297 -0.53951,-0.363899 -0.539509,-0.363898 z"
         id="path667" /><path
         id="path418"
         style="fill:#010101;stroke-width:1.09058"
         d="m 86.122645,79.14282 -0.401765,-0.475736 -0.402215,-0.475477 -0.66057,-0.455801 -0.661012,-0.455547 -0.791559,-0.335421 -0.791293,-0.334978 -0.760754,-0.09602 -0.760746,-0.09603 -0.628003,0.121507 -0.627994,0.121503 -0.488964,0.277569 -0.489164,0.278262 -0.287659,0.376121 -0.287658,0.376121 -0.20351,0.705851 -0.20351,0.70585 -0.732223,0.494953 -0.732665,0.495207 -0.461317,0.561116 -0.46105,0.561557 -0.233745,0.564583 -0.233753,0.564587 -0.0858,0.553157 -0.08606,0.552708 0.118911,0.65038 0.118652,0.649932 0.397271,0.594093 0.396579,0.593895 0.474064,0.345683 0.473622,0.345937 0.643371,0.207952 0.644081,0.208141 0.511008,0.02003 0.510566,0.02029 0.736136,-0.148135 0.735435,-0.148328 0.558067,-0.3222 0.558526,-0.322465 0.77156,0.206741 0.77086,0.206549 0.558417,-0.142793 0.558426,-0.142798 0.571938,-0.388094 0.571939,-0.388094 0.433915,-0.639576 0.433649,-0.640017 0.258894,-1.021263 0.258185,-1.02145 -0.06872,-1.067813 -0.06916,-1.067557 -0.226482,-0.587678 z m -1.809089,0.949007 0.147096,0.545198 0.147096,0.545198 -0.0038,0.608431 -0.0031,0.608619 -0.202833,0.755584 -0.202133,0.755775 -0.347817,0.369084 -0.347624,0.368376 -0.314198,0.03043 -0.314906,0.03025 -0.287477,-0.145506 -0.288196,-0.145689 -0.508346,-0.515642 -0.508338,-0.515647 -0.580098,-1.028559 -0.579839,-1.028111 -0.136029,-0.449549 -0.135588,-0.449805 -0.0159,-0.635264 -0.01609,-0.634556 0.16341,-0.224426 0.162709,-0.22462 0.33804,-0.08836 0.33804,-0.08836 0.556315,0.04579 0.555865,0.04605 0.739383,0.364949 0.739125,0.364502 0.452501,0.368274 z m -6.379531,1.616227 0.946195,1.638859 0.945937,1.638411 -0.377787,0.143533 -0.37735,0.14327 -0.54863,-0.03351 -0.548631,-0.03352 -0.38847,-0.21191 -0.387771,-0.211718 -0.212323,-0.366716 -0.212066,-0.366268 0.02915,-0.478683 0.02985,-0.478492 0.390951,-0.599254 0.391208,-0.598807 0.159773,-0.09225 z" /><path
         id="path749"
         style="fill:#df0a19;stroke-width:1.09058"
         d="m 77.949713,81.703768 -0.159956,0.09295 -0.159773,0.09224 -0.391208,0.598807 -0.390959,0.599259 -0.02985,0.478491 -0.02914,0.47868 0.212065,0.366268 0.212315,0.36672 0.387779,0.211712 0.38847,0.211911 0.548631,0.03352 0.54863,0.03352 0.377346,-0.143279 0.377792,-0.143525 -0.945938,-1.638411 z" /><path
         id="path811"
         style="fill:#fee473;stroke-width:1.09058"
         d="m 82.938644,79.310989 -0.429707,-0.227159 -0.429351,-0.226795 -0.472047,-0.0368 -0.471689,-0.03717 -0.356446,0.116848 -0.356451,0.116113 -0.205534,0.208833 -0.20589,0.209195 0.05518,0.321128 0.05518,0.321127 0.336261,0.242555 0.336325,0.242477 0.555407,0.08842 0.555049,0.08876 0.46267,-0.129796 0.463054,-0.129383 0.168012,-0.286368 0.168374,-0.285994 -0.114187,-0.298003 z" /><path
         id="path424"
         style="fill:#010101;stroke-width:1.09058"
         d="m 77.068602,73.067086 -0.388007,-0.17657 -0.224921,-0.247455 -0.224921,-0.247454 -0.177245,-0.388097 -0.177245,-0.388098 0.04092,-0.561432 0.04092,-0.561435 0.204174,-0.34844 0.204175,-0.348441 0.422242,-0.299357 0.422242,-0.299357 0.29698,-0.06098 0.296975,-0.06099 0.465332,0.0598 0.465331,0.05981 0.332945,0.195228 0.332945,0.195228 0.314391,0.439441 0.31439,0.43944 0.03637,0.595404 0.03637,0.595404 -0.334929,0.580114 -0.334929,0.580114 -0.504191,0.251432 -0.50419,0.25143 -0.48405,-0.03907 -0.484049,-0.03907 -0.388006,-0.176568 z m 11.373287,6.616161 -0.456924,-0.266924 -0.230068,-0.311429 -0.23008,-0.31143 -0.110968,-0.556177 -0.110963,-0.556173 0.141983,-0.403761 0.141983,-0.403762 0.262512,-0.321664 0.262511,-0.321664 0.424868,-0.2286 0.424858,-0.228607 0.533311,0.02768 0.533319,0.02768 0.485798,0.285556 0.485795,0.285555 0.210219,0.32801 0.210219,0.32801 0.08288,0.466253 0.08287,0.466248 -0.121942,0.457349 -0.121942,0.457349 -0.346171,0.375627 -0.346173,0.375628 -0.346385,0.150276 -0.346388,0.150277 -0.529099,-0.0022 -0.529107,-0.0022 -0.456916,-0.266918 z" /><path
         style="fill:#010101;stroke-width:1.09058"
         d="m 39.469088,81.017905 -0.532489,-0.954298 -0.104209,-0.279295 -0.104209,-0.279295 -0.229934,-0.857318 -0.229933,-0.857316 -0.05443,-0.947377 -0.05442,-0.947381 0.05886,-0.84869 0.05886,-0.848689 0.288075,-1.164319 0.288067,-1.164314 0.337295,-0.859967 0.337295,-0.859968 0.568866,-1.075376 0.568874,-1.075381 0.321694,-0.18573 0.321685,-0.185725 0.34087,0.07852 0.340862,0.07853 0.208583,0.215277 0.208583,0.215276 0.08268,0.290007 0.08268,0.290007 -0.180787,0.329889 -0.180786,0.329889 -0.5313,1.043242 -0.531291,1.043236 -0.387304,1.33403 -0.387312,1.334036 -0.08593,0.886004 -0.08593,0.886006 0.09026,0.94458 0.09025,0.944586 0.186166,0.639329 0.186166,0.63933 0.533498,0.914044 0.533496,0.914043 0.433527,0.472571 0.433536,0.472566 0.613012,0.416249 0.613022,0.416244 1.214854,0.35769 1.214863,0.357683 1.069162,0.07058 1.069172,0.07058 1.30122,-0.09806 1.301221,-0.09806 1.466341,-0.282442 1.466349,-0.28245 1.520758,-0.42891 1.520765,-0.428916 1.553117,-0.596963 1.553126,-0.596966 0.277761,-0.02208 0.277769,-0.02209 0.256383,0.182909 0.256383,0.182909 0.146897,0.254432 0.146897,0.254433 -0.105652,0.394286 -0.105643,0.394281 -0.456126,0.263345 -0.456119,0.26334 -1.556924,0.552788 -1.556916,0.552782 -1.166187,0.331966 -1.166186,0.331966 -1.012899,0.236688 -1.012899,0.236687 -1.321724,0.188147 -1.321716,0.188141 -0.928185,0.05296 -0.928178,0.05295 -1.278559,-0.08443 -1.27856,-0.08443 -1.329633,-0.395671 -1.329632,-0.39567 -0.999003,-0.673385 -0.999003,-0.673384 -0.608809,-0.695107 -0.608808,-0.695108 -0.532489,-0.954296 z"
         id="path416" /></g></g></svg>
